<?xml version="1.0" encoding="UTF-8"?>
<!-- Created with Inkscape (http://www.inkscape.org/) -->
<svg width="512" height="512" version="1.1" viewBox="0 0 135.47 135.47" xmlns="http://www.w3.org/2000/svg">
 <g stroke-linejoin="round">
  <path d="m86.757 0a48.709 48.709 0 0 0-48.709 48.709 48.709 48.709 0 0 0 48.709 48.709 48.709 48.709 0 0 0 48.709-48.709 48.709 48.709 0 0 0-48.709-48.709zm0.19379 13.732a34.604 34.604 0 0 1 34.604 34.604 34.604 34.604 0 0 1-34.604 34.604 34.604 34.604 0 0 1-34.604-34.604 34.604 34.604 0 0 1 34.604-34.604z" stop-color="#000000" stroke-width="1.0175" style="-inkscape-stroke:none"/>
  <path d="m58.355 88.255-44.447 44.509c-1.6316 1.6339-3.7187 1.5861-5.1317 0.17201l-6.7981-6.8033c-0.92086-0.94222-0.97644-2.7821 0.17835-3.9852l44.989-45.216z" stop-color="#000000" stroke-width="1.8065"/>
 </g>
</svg>
