<?xml version="1.0" encoding="UTF-8" standalone="no"?>
<!-- Created with Inkscape (http://www.inkscape.org/) -->

<svg
   width="486.24078"
   height="416.0495"
   viewBox="0 0 128.6512 110.07977"
   version="1.1"
   id="svg5"
   xml:space="preserve"
   inkscape:version="1.2.1 (9c6d41e410, 2022-07-14)"
   sodipodi:docname="Logo-Optimized.svg"
   inkscape:export-filename="Logo-Optimized.png"
   inkscape:export-xdpi="96"
   inkscape:export-ydpi="96"
   xmlns:inkscape="http://www.inkscape.org/namespaces/inkscape"
   xmlns:sodipodi="http://sodipodi.sourceforge.net/DTD/sodipodi-0.dtd"
   xmlns="http://www.w3.org/2000/svg"
   xmlns:svg="http://www.w3.org/2000/svg"><sodipodi:namedview
     id="namedview7"
     pagecolor="#ffffff"
     bordercolor="#666666"
     borderopacity="1.0"
     inkscape:showpageshadow="2"
     inkscape:pageopacity="0.0"
     inkscape:pagecheckerboard="0"
     inkscape:deskcolor="#d1d1d1"
     inkscape:document-units="px"
     showgrid="false"
     inkscape:zoom="0.71624579"
     inkscape:cx="-18.848278"
     inkscape:cy="379.05982"
     inkscape:window-width="1920"
     inkscape:window-height="991"
     inkscape:window-x="-9"
     inkscape:window-y="-9"
     inkscape:window-maximized="1"
     inkscape:current-layer="layer1" /><defs
     id="defs2" /><g
     inkscape:label="Vrstva 1"
     inkscape:groupmode="layer"
     id="layer1"
     transform="translate(-3.13986,-3.1510471)"><path
       id="path242-3"
       style="fill:#ff4000;fill-opacity:1;stroke-width:2.00818;stroke-linejoin:round"
       d="M 104.73314,3.1512288 C 88.246622,3.1582529 68.357595,3.324861 58.093094,3.3248616 27.743396,3.3248634 3.1398598,27.92788 3.13986,58.277579 c 6e-7,30.349698 24.603537,54.953231 54.953234,54.953231 30.349699,0 44.751266,-17.268895 55.322206,-45.718136 4.03631,-9.826898 7.89329,-18.916225 11.62409,-28.260807 2.82125,-6.745776 8.48111,-14.715334 6.23787,-23.026501 -1.35375,-5.015585 -4.98371,-9.9346155 -12.25662,-11.9186522 -4.23572,-1.1554947 -8.86356,-1.157795 -14.2875,-1.155485 z M 57.696219,13.298413 A 44.582291,44.582291 0 0 1 102.27851,57.880704 44.582291,44.582291 0 0 1 57.696219,102.463 44.582291,44.582291 0 0 1 13.113928,57.880704 44.582291,44.582291 0 0 1 57.696219,13.298413 Z"
       inkscape:label="body" /><text
       xml:space="preserve"
       style="font-style:normal;font-variant:normal;font-weight:bold;font-stretch:normal;font-size:31.75px;line-height:1.25;font-family:Arial;-inkscape-font-specification:'Arial Bold';fill:#ff4000;fill-opacity:1;stroke:none;stroke-width:0.264583"
       x="22.427055"
       y="69.236603"
       id="text1839"
       inkscape:label="GGS"><tspan
         sodipodi:role="line"
         id="tspan1837"
         style="font-style:normal;font-variant:normal;font-weight:bold;font-stretch:normal;font-size:31.75px;font-family:Arial;-inkscape-font-specification:'Arial Bold';fill:#ff4000;fill-opacity:1;stroke-width:0.264583"
         x="22.427055"
         y="69.236603">GGS</tspan></text><text
       xml:space="preserve"
       style="font-style:normal;font-weight:normal;font-size:16.7677px;line-height:1.25;font-family:sans-serif;fill:#000000;fill-opacity:1;stroke:none;stroke-width:0.419193"
       x="106.2389"
       y="25.486591"
       id="text2002"
       inkscape:label="copyright"><tspan
         sodipodi:role="line"
         id="tspan2000"
         style="stroke-width:0.419193"
         x="106.2389"
         y="25.486591">©</tspan></text></g></svg>
